<svg xmlns="http://www.w3.org/2000/svg" width="16" height="17" fill="none">
	<path fill="#fff"
		d="M10.906 4.094C9.22 4.094 7.844 3 5.75 3c-.781 0-1.469.156-2.125.406.063-.219.094-.406.094-.625v-.125c-.031-.875-.781-1.594-1.656-1.625C1.063.97.25 1.781.25 2.75c0 .625.281 1.125.75 1.438V16.25c0 .438.313.75.75.75h.5a.74.74 0 0 0 .75-.75v-2.938c.875-.374 1.969-.687 3.563-.687 1.687 0 3.062 1.094 5.156 1.094 1.5 0 2.719-.531 3.844-1.281.25-.188.437-.5.437-.813V4c0-.719-.781-1.188-1.438-.906-1.062.5-2.374 1-3.656 1Z" />
</svg>