<svg width="12" height="11" viewBox="0 0 12 11" fill="none" xmlns="http://www.w3.org/2000/svg">
<path d="M1.875 8.125H0.375C0.164062 8.125 0 8.3125 0 8.5V10C0 10.2109 0.164062 10.375 0.375 10.375H1.875C2.0625 10.375 2.25 10.2109 2.25 10V8.5C2.25 8.3125 2.0625 8.125 1.875 8.125ZM1.875 0.625H0.375C0.164062 0.625 0 0.8125 0 1V2.5C0 2.71094 0.164062 2.875 0.375 2.875H1.875C2.0625 2.875 2.25 2.71094 2.25 2.5V1C2.25 0.8125 2.0625 0.625 1.875 0.625ZM1.875 4.375H0.375C0.164062 4.375 0 4.5625 0 4.75V6.25C0 6.46094 0.164062 6.625 0.375 6.625H1.875C2.0625 6.625 2.25 6.46094 2.25 6.25V4.75C2.25 4.5625 2.0625 4.375 1.875 4.375ZM11.625 8.5H4.125C3.91406 8.5 3.75 8.6875 3.75 8.875V9.625C3.75 9.83594 3.91406 10 4.125 10H11.625C11.8125 10 12 9.83594 12 9.625V8.875C12 8.6875 11.8125 8.5 11.625 8.5ZM11.625 1H4.125C3.91406 1 3.75 1.1875 3.75 1.375V2.125C3.75 2.33594 3.91406 2.5 4.125 2.5H11.625C11.8125 2.5 12 2.33594 12 2.125V1.375C12 1.1875 11.8125 1 11.625 1ZM11.625 4.75H4.125C3.91406 4.75 3.75 4.9375 3.75 5.125V5.875C3.75 6.08594 3.91406 6.25 4.125 6.25H11.625C11.8125 6.25 12 6.08594 12 5.875V5.125C12 4.9375 11.8125 4.75 11.625 4.75Z" fill="white"/>
</svg>
