<svg width="12" height="13" viewBox="0 0 12 13" fill="none" xmlns="http://www.w3.org/2000/svg">
<path d="M6 6.5C7.64062 6.5 9 5.16406 9 3.5C9 1.85938 7.64062 0.5 6 0.5C4.33594 0.5 3 1.85938 3 3.5C3 5.16406 4.33594 6.5 6 6.5ZM8.08594 7.25H7.6875C7.17188 7.50781 6.60938 7.625 6 7.625C5.39062 7.625 4.80469 7.50781 4.28906 7.25H3.89062C2.15625 7.25 0.75 8.67969 0.75 10.4141V11.375C0.75 12.0078 1.24219 12.5 1.875 12.5H10.125C10.7344 12.5 11.25 12.0078 11.25 11.375V10.4141C11.25 8.67969 9.82031 7.25 8.08594 7.25Z" fill="white"/>
</svg>
