<svg width="16" height="13" viewBox="0 0 16 13" fill="none" xmlns="http://www.w3.org/2000/svg">
<path d="M14.7969 9.26562C14.8672 8.9375 14.8672 8.58594 14.7969 8.25781L15.4062 7.90625C15.4766 7.88281 15.5 7.78906 15.4766 7.71875C15.3125 7.20312 15.0547 6.75781 14.7031 6.35938C14.6562 6.3125 14.5625 6.28906 14.4922 6.33594L13.8828 6.6875C13.625 6.47656 13.3438 6.28906 13.0156 6.19531V5.49219C13.0156 5.39844 12.9688 5.32812 12.8984 5.32812C12.3594 5.21094 11.8438 5.21094 11.3281 5.32812C11.2578 5.32812 11.2109 5.39844 11.2109 5.49219V6.19531C10.8828 6.28906 10.6016 6.47656 10.3438 6.6875L9.73438 6.33594C9.66406 6.28906 9.57031 6.3125 9.52344 6.35938C9.17188 6.75781 8.89062 7.20312 8.75 7.71875C8.72656 7.78906 8.75 7.88281 8.82031 7.90625L9.42969 8.25781C9.35938 8.58594 9.35938 8.9375 9.42969 9.26562L8.82031 9.61719C8.75 9.64062 8.72656 9.73438 8.75 9.80469C8.89062 10.3203 9.17188 10.7656 9.52344 11.1641C9.57031 11.2109 9.66406 11.2344 9.73438 11.1875L10.3438 10.8359C10.6016 11.0469 10.8828 11.2344 11.2109 11.3281V12.0312C11.2109 12.125 11.2578 12.1953 11.3281 12.1953C11.8672 12.3125 12.3828 12.3125 12.8984 12.1953C12.9688 12.1953 13.0156 12.125 13.0156 12.0312V11.3281C13.3438 11.2344 13.625 11.0469 13.8828 10.8359L14.4922 11.1875C14.5625 11.2344 14.6562 11.2109 14.7031 11.1641C15.0547 10.7656 15.3125 10.3203 15.4766 9.80469C15.5 9.73438 15.4766 9.64062 15.4062 9.61719L14.7969 9.26562ZM12.125 9.89844C11.4922 9.89844 10.9766 9.38281 10.9766 8.75C10.9766 8.14062 11.4922 7.625 12.125 7.625C12.7344 7.625 13.25 8.14062 13.25 8.75C13.25 9.38281 12.7344 9.89844 12.125 9.89844ZM5.75 6.5C7.39062 6.5 8.75 5.16406 8.75 3.5C8.75 1.85938 7.39062 0.5 5.75 0.5C4.08594 0.5 2.75 1.85938 2.75 3.5C2.75 5.16406 4.08594 6.5 5.75 6.5ZM10.4609 11.8203C10.3906 11.7969 10.3438 11.75 10.2969 11.7266L10.1094 11.8438C9.96875 11.9141 9.80469 11.9609 9.64062 11.9609C9.40625 11.9609 9.14844 11.8438 8.98438 11.6562C8.53906 11.2109 8.21094 10.625 8.02344 10.0391C7.90625 9.61719 8.07031 9.17188 8.44531 8.96094L8.63281 8.84375C8.63281 8.79688 8.63281 8.72656 8.63281 8.67969L8.44531 8.5625C8.07031 8.35156 7.90625 7.90625 8.02344 7.48438C8.04688 7.41406 8.09375 7.36719 8.11719 7.29688C8.02344 7.27344 7.92969 7.25 7.83594 7.25H7.4375C6.92188 7.50781 6.35938 7.625 5.75 7.625C5.14062 7.625 4.55469 7.50781 4.03906 7.25H3.64062C1.90625 7.25 0.5 8.67969 0.5 10.4141V11.375C0.5 12.0078 0.992188 12.5 1.625 12.5H9.875C10.1094 12.5 10.3203 12.4297 10.5078 12.3125C10.4844 12.2188 10.4609 12.125 10.4609 12.0312V11.8203Z" fill="white"/>
</svg>
